<?xml version="1.0" encoding="UTF-8"?><svg xmlns="http://www.w3.org/2000/svg" xmlns:xlink="http://www.w3.org/1999/xlink" viewBox="0 0 370.6 366.73"><defs><style>.cls-1,.cls-2{fill:#fff;}.cls-3{fill:#434041;}.cls-4{fill:#f6b63e;}.cls-5{fill:#b0afb5;}.cls-6{fill:#1f140f;}.cls-7,.cls-2{opacity:.5;}.cls-8{fill:url(#linear-gradient);}.cls-8,.cls-9{mix-blend-mode:multiply;}.cls-10{fill:#3a3636;}.cls-11{fill:#d89f35;}.cls-12{fill:url(#linear-gradient-6);}.cls-13{fill:#d0a68f;}.cls-14{isolation:isolate;}.cls-15{fill:#abc600;}.cls-16{fill:#40290f;}.cls-17{fill:#fcd241;}.cls-18{fill:#fcd147;}.cls-19{fill:url(#radial-gradient);}.cls-20{fill:#ffef00;}.cls-21{fill:#ca9f00;}.cls-22{fill:#c4902f;}.cls-23{fill:#28201e;}.cls-24{fill:#eb7c35;}.cls-25{fill:url(#linear-gradient-5);}.cls-26{fill:#d23626;}.cls-27{fill:#fbc700;}.cls-28{fill:#f6c7ac;}.cls-29{filter:url(#luminosity-noclip-2);}.cls-30{mask:url(#mask-1);}.cls-31{mask:url(#mask);}.cls-32{fill:url(#linear-gradient-3);}.cls-33{fill:url(#linear-gradient-2);opacity:.1;}.cls-34{fill:#ffe200;}.cls-35{fill:#d8dade;}.cls-36{fill:#c3c5ca;}.cls-37{fill:#7a9210;}.cls-38{fill:#eaba00;}.cls-39{fill:url(#linear-gradient-4);}.cls-40{fill:#f7b600;}.cls-41{fill:#fbcf41;}</style><radialGradient id="radial-gradient" cx="185.65" cy="1254.67" fx="185.65" fy="1254.67" r="140.66" gradientTransform="translate(0 -350.41) scale(1 .54)" gradientUnits="userSpaceOnUse"><stop offset=".06" stop-color="#4b494b"/><stop offset="1" stop-color="#1f140f"/></radialGradient><filter id="luminosity-noclip-2" x="19.38" y="301.7" width="332.55" height="53.27" color-interpolation-filters="sRGB" filterUnits="userSpaceOnUse"><feFlood flood-color="#fff" result="bg"/><feBlend in="SourceGraphic" in2="bg"/></filter><filter id="luminosity-noclip-3" x="19.38" y="-8367.39" width="332.55" height="32766" color-interpolation-filters="sRGB" filterUnits="userSpaceOnUse"><feFlood flood-color="#fff" result="bg"/><feBlend in="SourceGraphic" in2="bg"/></filter><mask id="mask-1" x="19.38" y="-8367.39" width="332.55" height="32766" maskUnits="userSpaceOnUse"/><linearGradient id="linear-gradient" x1="19.38" y1="1267.03" x2="351.93" y2="1267.03" gradientTransform="translate(0 -350.41) scale(1 .54)" gradientUnits="userSpaceOnUse"><stop offset=".05" stop-color="#fff"/><stop offset="1" stop-color="#000"/></linearGradient><mask id="mask" x="19.38" y="301.7" width="332.55" height="53.27" maskUnits="userSpaceOnUse"><g class="cls-29"><g class="cls-30"><path class="cls-8" d="M320.5,303.43c-7.7,0-11.49,.65-17.91,2.96-4.22,1.51-10.39,4-15.84,3.55-1.3-.11-2.42-.37-3.41-.73,2.56,2.46,5.77,4.22,9.7,4.9,5.73,.99,10.99-.23,16.36-2.22,4.75-1.76,9.58-3.68,14.72-3.73,2.3-.02,5.79,.08,6.96,2.5,.89,1.84-.65,3.96-1.98,5.11-2.44,2.1-5.87,3.62-9.1,3.87-6.05,.47-12.11,.12-18.17,.03-12.73-.2-25.13-2.78-37.55-5.35-6.03-1.25-12.09-2.37-18.11-3.67-6-1.3-12.02-2.61-18.12-3.34-5.96-.72-12.11-1.09-18.06-.05-3.78,.66-7.13,2.1-9.53,5.21-3.71,4.8-4.45,11.29-8.31,15.96-1.8,2.17-4.13,3.47-6.92,3.88-4.27,.62-8.15-.96-12.16-2.11-2.88-.83-6.21-1.18-9.02,.14-2.43,1.14-4.67,2.61-6.83,4.2-4.62,3.41-9.05,7.09-14.31,9.5-10.33,4.71-21.97,4.18-32.96,2.75-7.79-1.01-16.09-3.19-22.07-8.56-2.69-2.42-4.9-5.32-6.66-8.48-2.21-3.97-3.37-8.65-5.9-12.4-5.29-7.83-14.6-6.1-22.78-6.04-3.85,.03-19.06-.46-14.09-7.97,.38-.57,.78-1.1,1.19-1.61-3.39,.68-6.72,1.47-9.89,2.48-5.49,1.75-12.15,5.19-9.92,9.06,2.69,4.66,17.02,5.77,24.73,6.37,4.11,.32,8.36,.09,12.42,.7,5.53,.83,6.3,1.76,6.22,5.33-.14,6.23,0,12.62,7.67,17.08,6.38,3.71,16.13,5.73,24.26,7.06,12.56,2.05,26.45,4.36,39.48,4.9,11.47,.48,23.6,.29,35.09-.02,8.09-.21,17.38-1,24.46-3.8,7.06-2.78,14.08-6.59,14.53-12.37,.36-4.69-5.38-10.49-1.13-14.91,4.86-5.06,18.01-4.46,25.7-4.09,11.38,.54,22.47,2.45,33.5,4.26,11.77,1.93,26.4,2.5,38.64,1.84,8.66-.47,18.46-2.62,26.71-4.13,6.52-1.19,16.13-3.87,18.81-7.53,6.56-8.98-20.18-10.5-30.4-10.5Z"/></g></g></mask><linearGradient id="linear-gradient-2" x1="19.38" y1="1267.03" x2="351.93" y2="1267.03" gradientTransform="translate(0 -350.41) scale(1 .54)" gradientUnits="userSpaceOnUse"><stop offset=".05" stop-color="#fff"/><stop offset="1" stop-color="#fff"/></linearGradient><linearGradient id="linear-gradient-3" x1="18.33" y1="178.95" x2="50.48" y2="178.95" gradientTransform="matrix(1, 0, 0, 1, 0, 0)" gradientUnits="userSpaceOnUse"><stop offset="0" stop-color="#d23626"/><stop offset="1" stop-color="#751f11"/></linearGradient><linearGradient id="linear-gradient-4" x1="57.91" y1="166" x2="90.07" y2="166" xlink:href="#linear-gradient-3"/><linearGradient id="linear-gradient-5" x1="98.7" y1="149.04" x2="130.85" y2="149.04" xlink:href="#linear-gradient-3"/><linearGradient id="linear-gradient-6" x1="142.6" y1="132.58" x2="174.75" y2="132.58" xlink:href="#linear-gradient-3"/></defs><g class="cls-14"><g id="Capa_1"><g><path class="cls-6" d="M298.11,315.23c-8.89-.73-10.33-7.49-15.75-11.16-6.17-4.18-13.55-5-22.22-4.98-13.71,.03-22.18-2.17-34.73-5.57-16.22-4.4-27.72-7.71-45.83-6.4-18.01,1.3-35,2.82-52.6,5.67-19.16,3.1-39.34,1.9-58.75,4.74-9.96,1.46-19.35,4.15-29.24,5.8-9.18,1.53-24.55,3.31-32.9,5.98-6.11,1.95-7.37,5.29-4.89,9.59,3,5.19,18.93,6.42,27.51,7.09,4.57,.35,9.3,.1,13.81,.78,6.15,.93,7,1.96,6.91,5.93-.15,6.92,0,14.04,8.53,19,7.09,4.12,17.94,6.37,26.98,7.85,13.97,2.28,29.42,4.85,43.91,5.46,12.76,.54,26.25,.32,39.03-.02,9-.24,19.33-1.12,27.21-4.22,7.85-3.09,15.67-7.33,16.17-13.76,.4-5.22-5.98-11.67-1.26-16.59,5.41-5.63,20.04-4.96,28.58-4.55,12.66,.6,25,2.73,37.26,4.74,13.09,2.15,29.37,2.78,42.98,2.05,9.63-.52,20.54-2.91,29.71-4.6,7.25-1.33,17.94-4.31,20.92-8.38,7.29-9.99-22.45-11.68-33.82-11.68-8.57,0-12.78,.72-19.93,3.29-4.69,1.69-11.56,4.45-17.61,3.95Z"/><path class="cls-19" d="M298.11,310.86c-8.89-.73-10.33-7.49-15.75-11.16-6.17-4.18-13.55-5-22.22-4.98-13.71,.03-22.18-2.17-34.73-5.57-16.22-4.4-27.72-7.71-45.83-6.4-18.01,1.3-35,2.82-52.6,5.67-19.16,3.1-39.34,1.9-58.75,4.74-9.96,1.46-19.35,4.15-29.24,5.8-9.18,1.53-18.41,2.83-26.76,5.5-6.11,1.95-13.52,5.78-11.03,10.07,3,5.19,18.93,6.42,27.51,7.09,4.57,.35,9.3,.1,13.81,.78,6.15,.93,7,1.96,6.91,5.93-.15,6.93,0,14.04,8.53,19,7.09,4.12,17.94,6.37,26.98,7.85,13.97,2.28,29.42,4.85,43.91,5.46,12.76,.54,26.25,.32,39.03-.02,9-.24,19.33-1.12,27.21-4.22,7.85-3.09,15.67-7.33,16.17-13.76,.4-5.22-5.98-11.67-1.26-16.59,5.41-5.63,20.04-4.96,28.58-4.55,12.66,.6,25,2.73,37.26,4.74,13.09,2.15,29.37,2.78,42.98,2.05,9.63-.52,20.54-2.91,29.71-4.6,7.25-1.33,17.94-4.31,20.92-8.38,7.29-9.99-22.45-11.68-33.82-11.68-8.57,0-12.78,.72-19.93,3.29-4.69,1.68-11.56,4.45-17.61,3.95Z"/><g class="cls-31"><path class="cls-33" d="M320.5,303.43c-7.7,0-11.49,.65-17.91,2.96-4.22,1.51-10.39,4-15.84,3.55-1.3-.11-2.42-.37-3.41-.73,2.56,2.46,5.77,4.22,9.7,4.9,5.73,.99,10.99-.23,16.36-2.22,4.75-1.76,9.58-3.68,14.72-3.73,2.3-.02,5.79,.08,6.96,2.5,.89,1.84-.65,3.96-1.98,5.11-2.44,2.1-5.87,3.62-9.1,3.87-6.05,.47-12.11,.12-18.17,.03-12.73-.2-25.13-2.78-37.55-5.35-6.03-1.25-12.09-2.37-18.11-3.67-6-1.3-12.02-2.61-18.12-3.34-5.96-.72-12.11-1.09-18.06-.05-3.78,.66-7.13,2.1-9.53,5.21-3.71,4.8-4.45,11.29-8.31,15.96-1.8,2.17-4.13,3.47-6.92,3.88-4.27,.62-8.15-.96-12.16-2.11-2.88-.83-6.21-1.18-9.02,.14-2.43,1.14-4.67,2.61-6.83,4.2-4.62,3.41-9.05,7.09-14.31,9.5-10.33,4.71-21.97,4.18-32.96,2.75-7.79-1.01-16.09-3.19-22.07-8.56-2.69-2.42-4.9-5.32-6.66-8.48-2.21-3.97-3.37-8.65-5.9-12.4-5.29-7.83-14.6-6.1-22.78-6.04-3.85,.03-19.06-.46-14.09-7.97,.38-.57,.78-1.1,1.19-1.61-3.39,.68-6.72,1.47-9.89,2.48-5.49,1.75-12.15,5.19-9.92,9.06,2.69,4.66,17.02,5.77,24.73,6.37,4.11,.32,8.36,.09,12.42,.7,5.53,.83,6.3,1.76,6.22,5.33-.14,6.23,0,12.62,7.67,17.08,6.38,3.71,16.13,5.73,24.26,7.06,12.56,2.05,26.45,4.36,39.48,4.9,11.47,.48,23.6,.29,35.09-.02,8.09-.21,17.38-1,24.46-3.8,7.06-2.78,14.08-6.59,14.53-12.37,.36-4.69-5.38-10.49-1.13-14.91,4.86-5.06,18.01-4.46,25.7-4.09,11.38,.54,22.47,2.45,33.5,4.26,11.77,1.93,26.4,2.5,38.64,1.84,8.66-.47,18.46-2.62,26.71-4.13,6.52-1.19,16.13-3.87,18.81-7.53,6.56-8.98-20.18-10.5-30.4-10.5Z"/></g></g><g><g><g class="cls-9"><g><rect class="cls-35" x="7.29" y=".32" width="1.91" height="224.81"/><rect class="cls-35" x="24.72" y=".32" width="1.91" height="224.81"/><rect class="cls-35" x="42.14" y=".32" width="1.91" height="224.81"/><rect class="cls-35" x="59.56" y=".32" width="1.91" height="224.81"/><rect class="cls-35" x="76.98" y=".32" width="1.91" height="224.81"/><rect class="cls-35" x="94.4" y=".32" width="1.91" height="224.81"/><rect class="cls-35" x="111.82" y=".32" width="1.91" height="224.81"/><rect class="cls-35" x="129.24" y=".32" width="1.91" height="224.81"/><rect class="cls-35" x="146.66" y=".32" width="1.91" height="224.81"/><rect class="cls-35" x="164.08" y=".32" width="1.91" height="224.81"/><rect class="cls-35" x="181.5" y=".32" width="1.91" height="224.81"/><rect class="cls-35" x="198.92" y=".32" width="1.91" height="224.81"/><rect class="cls-35" x="216.35" y=".32" width="1.91" height="224.81"/><rect class="cls-35" x="233.77" y=".32" width="1.91" height="224.81"/></g><g><rect class="cls-35" x="7.29" width="226.28" height="1.89"/><rect class="cls-35" x="7.29" y="17.17" width="226.28" height="1.89"/><rect class="cls-35" x="7.29" y="34.35" width="226.28" height="1.89"/><rect class="cls-35" x="7.29" y="51.52" width="226.28" height="1.89"/><rect class="cls-35" x="7.29" y="68.69" width="226.28" height="1.89"/><rect class="cls-35" x="7.29" y="85.86" width="226.28" height="1.89"/><rect class="cls-35" x="7.29" y="103.04" width="226.28" height="1.89"/><rect class="cls-35" x="7.29" y="120.21" width="226.28" height="1.89"/><rect class="cls-35" x="7.29" y="137.38" width="226.28" height="1.89"/><rect class="cls-35" x="7.29" y="154.56" width="226.28" height="1.89"/><rect class="cls-35" x="7.29" y="171.73" width="226.28" height="1.89"/><rect class="cls-35" x="7.29" y="188.9" width="226.28" height="1.89"/><rect class="cls-35" x="7.29" y="206.08" width="226.28" height="1.89"/><rect class="cls-35" x="7.29" y="223.25" width="226.28" height="1.89"/></g></g><rect class="cls-5" x="7.29" y=".32" width="5.98" height="224.81"/><rect class="cls-5" x="7.29" y="219.45" width="228.39" height="5.98"/></g><g><g><rect class="cls-32" x="18.33" y="132.46" width="32.15" height="92.97"/><polygon class="cls-26" points="18.33 132.46 24.34 128.1 43.71 128.1 50.48 132.46 18.33 132.46"/></g><g><rect class="cls-39" x="57.91" y="106.57" width="32.15" height="118.86"/><polygon class="cls-26" points="57.91 106.57 63.92 102.21 83.29 102.21 90.07 106.57 57.91 106.57"/></g><g><rect class="cls-25" x="98.7" y="72.65" width="32.15" height="152.78"/><polygon class="cls-26" points="98.7 72.65 104.7 68.29 124.07 68.29 130.85 72.65 98.7 72.65"/></g><g><rect class="cls-12" x="142.6" y="39.72" width="32.15" height="185.71"/><polygon class="cls-26" points="142.6 39.72 148.6 35.36 167.97 35.36 174.75 39.72 142.6 39.72"/></g></g><g><polygon class="cls-15" points="194.29 37.63 234.23 37.63 214.26 12.46 194.29 37.63"/><rect class="cls-15" x="204.54" y="37.63" width="19.45" height="122.03"/><rect class="cls-37" x="213.91" y="37.63" width="10.07" height="122.03"/></g></g><g><g><path class="cls-22" d="M182.36,292.15c0,16.78-32.21,30.37-71.93,30.37s-71.93-13.6-71.93-30.37v-11.52H181.93l.42,11.52Z"/><g><path class="cls-4" d="M182.36,280.63c0,16.78-32.21,30.37-71.93,30.37s-71.93-13.6-71.93-30.37,32.2-30.37,71.93-30.37,71.93,13.6,71.93,30.37Z"/><path class="cls-41" d="M70.72,295.45c-1.36-2.45-3.07-4.86-3.9-7.36-.85-2.53-1.15-5.09-.79-7.64,.61-4.31,2.85-8.7,6.81-12.68,3.62-3.65,9.15-6.95,16.52-9.42,8.17-2.74,17.94-4.87,28.08-5.94,4.62-.49,9.3-.75,14-.82-6.65-.86-13.7-1.32-21.01-1.32-39.73,0-71.93,13.6-71.93,30.37,0,12.23,17.11,22.76,41.77,27.58-5.04-3.95-7.14-8.42-9.54-12.76Z"/><g><path class="cls-11" d="M168.91,280.63c0,13.64-26.19,24.7-58.49,24.7s-58.49-11.06-58.49-24.7,26.19-24.7,58.49-24.7,58.49,11.06,58.49,24.7Z"/><path class="cls-4" d="M161.83,280.63c0,11.99-23.02,21.71-51.4,21.71s-51.4-9.72-51.4-21.71,23.01-21.71,51.4-21.71,51.4,9.72,51.4,21.71Z"/><path class="cls-41" d="M110.43,258.93c-12.28,0-23.56,1.82-32.4,4.86,2.26-.14,4.58-.22,6.94-.22,25.36,0,45.92,8.68,45.92,19.39,0,8.9-14.2,16.4-33.55,18.68,4.18,.46,8.57,.71,13.1,.71,28.39,0,51.4-9.72,51.4-21.71s-23.02-21.71-51.4-21.71Z"/></g><g><path class="cls-11" d="M132.78,281.19c-.94-1-2.36-1.89-4.2-2.62-2.21-.89-5.55-1.75-9.92-2.58-1.3-.25-2.24-.45-2.81-.58l-1.92-.42v-7.79c1.74,0,3.15,.12,4.18,.34,.7,.15,1.07,.3,1.12,.45-.07,.07-.33,.28-1.26,.75-1.28,.65-1.93,1.34-1.93,2.07,0,.93,.82,1.69,2.45,2.26,1.55,.55,3.6,.82,6.09,.82s4.33-.34,5.83-1.02c1.48-.67,2.23-1.52,2.23-2.55,0-1.82-1.86-3.29-5.54-4.38-3.24-.96-7.65-1.53-13.14-1.7l-.05-3.06h-7.94v3.12c-5.5,.42-9.89,1.29-13.04,2.6-3.44,1.43-5.19,3.27-5.19,5.46,0,1.83,1.29,3.45,3.84,4.81,2.49,1.33,6.39,2.5,11.56,3.47l2.82,.56v9.19c-1.91-.05-3.53-.19-4.82-.42-.89-.16-1.49-.34-1.72-.5,.04,0,.09-.02,.14-.03,.86-.16,1.51-.33,1.99-.52l.05-.02c.64-.27,1.12-.59,1.42-.95,.28-.34,.42-.72,.42-1.13,0-1.02-.74-1.85-2.21-2.47-1.47-.62-3.43-.93-5.84-.93-2.55,0-4.67,.36-6.3,1.08-1.62,.71-2.44,1.63-2.44,2.74,0,1.77,1.9,3.25,5.65,4.4,3.32,1.01,7.91,1.69,13.66,2.01v6.44h7.95v-6.46c6.19-.45,11.09-1.42,14.57-2.9,3.76-1.6,5.67-3.68,5.67-6.2,0-1.22-.47-2.34-1.4-3.33Zm-10.58,5.33c0,1-.78,1.79-2.4,2.42-1.4,.55-3.4,.97-5.96,1.25v-7.6c2.53,.49,4.51,1.05,5.91,1.66,1.65,.71,2.45,1.46,2.45,2.27Zm-16.02-18.94v6.02c-1.82-.44-3.28-.91-4.34-1.4-1.32-.61-1.96-1.2-1.96-1.82,0-.73,.61-1.33,1.88-1.82,1.05-.41,2.54-.74,4.42-.98Z"/><path class="cls-17" d="M107.4,299.48v-6.37c-6.13-.28-10.88-.93-14.25-1.96-3.37-1.03-5.06-2.34-5.06-3.91,0-.95,.68-1.73,2.04-2.32,1.36-.6,3.12-.89,5.28-.89,2.03,0,3.65,.25,4.84,.76,1.2,.51,1.79,1.19,1.79,2.04,0,.35-.12,.66-.34,.93-.23,.28-.59,.52-1.08,.73-.36,.14-.9,.28-1.62,.42-.72,.14-1.08,.28-1.08,.44,0,.47,.89,.87,2.68,1.19,1.78,.33,4.05,.49,6.8,.49v-10.19l-3.64-.73c-5.01-.94-8.7-2.04-11.05-3.3-2.36-1.26-3.54-2.74-3.54-4.44,0-2.03,1.59-3.71,4.76-5.03,3.18-1.32,7.66-2.16,13.46-2.52v-3.03h5.11l.05,3.03c5.86,.11,10.44,.65,13.73,1.63,3.29,.98,4.94,2.27,4.94,3.89,0,.87-.62,1.58-1.84,2.14-1.23,.55-2.82,.83-4.79,.83-2.16,0-3.89-.23-5.18-.69-1.29-.46-1.94-1.06-1.94-1.8,0-.58,.53-1.14,1.6-1.68,1.06-.54,1.6-.91,1.6-1.1,0-.42-.64-.76-1.92-1.03-1.28-.27-2.95-.4-5.01-.4h-1.23v8.76l2.65,.58c.59,.14,1.56,.34,2.9,.6,4.26,.8,7.43,1.63,9.53,2.47,1.7,.68,2.99,1.48,3.86,2.41,.87,.93,1.3,1.96,1.3,3.11,0,2.37-1.75,4.29-5.26,5.78-3.5,1.49-8.5,2.42-14.98,2.81v6.37h-5.11Zm.2-24.9v-7.78c-2.98,.26-5.25,.7-6.8,1.31-1.56,.61-2.33,1.36-2.33,2.26,0,.76,.78,1.5,2.33,2.22,1.55,.72,3.82,1.38,6.8,1.99Zm4.82,16.35c3.67-.29,6.45-.81,8.35-1.56,1.9-.75,2.85-1.7,2.85-2.86,0-.97-.95-1.86-2.85-2.69-1.9-.82-4.69-1.54-8.35-2.15v9.25Z"/><path class="cls-20" d="M112.56,264.68l-.05-2.89h-5.11v2.88c1.65-.02,3.41-.04,5.16,.01Z"/><path class="cls-20" d="M119.51,265.49c4.28,1.1,3.93,3.18,4.11,5.03,.08,.79,.28,1.65,1.23,2.35,.21,.15,.44,.29,.7,.41,1.54-.08,2.83-.34,3.85-.81,1.23-.55,1.84-1.26,1.84-2.14,0-1.62-1.65-2.91-4.94-3.89-2.48-.73-5.69-1.22-9.62-1.47,1,.13,1.95,.29,2.83,.52Z"/><path class="cls-20" d="M125.48,281.91c-3.35-1.76-8.04-2.61-13.07-3.2-4.52-.54-9.51-.9-13.51-1.99-3.95-1.08-6.43-2.85-7.42-4.77-.63-1.22-.64-2.47,.41-3.57-1.8,1.13-2.71,2.46-2.71,3.99,0,1.7,1.18,3.18,3.54,4.44,2.36,1.26,6.04,2.36,11.05,3.3l3.64,.73v10.19c-2.75,0-5.02-.16-6.8-.49-1.79-.33-2.68-.72-2.68-1.19,0-.15,.36-.3,1.08-.44,.72-.14,1.26-.28,1.62-.42,.49-.21,.85-.45,1.08-.73,.23-.28,.34-.59,.34-.93,0-.86-.6-1.54-1.79-2.04-1.19-.5-2.81-.76-4.84-.76-2.16,0-3.92,.3-5.28,.89-1.36,.59-2.04,1.37-2.04,2.32,0,1.58,1.69,2.88,5.06,3.91,3.07,.94,7.29,1.56,12.64,1.88,.54,0,1.07-.02,1.61-.03v6.49h5.11v-6.64c.39-.02,.78-.03,1.17-.05,2.6-.13,5.21-.34,7.58-.83,4.22-.87,8.29-2.32,8.54-4.43,.23-1.94-1.45-4.1-4.33-5.61Zm-4.71,7.46c-1.9,.75-4.69,1.27-8.35,1.56v-9.25c3.67,.61,6.45,1.32,8.35,2.15,1.9,.82,2.85,1.72,2.85,2.69,0,1.16-.95,2.12-2.85,2.86Z"/></g></g></g><g><path class="cls-22" d="M182.36,274.88c0,16.78-32.21,30.37-71.93,30.37s-71.93-13.6-71.93-30.37v-11.52H181.93l.42,11.52Z"/><g><path class="cls-4" d="M182.36,263.36c0,16.78-32.21,30.37-71.93,30.37s-71.93-13.6-71.93-30.37,32.2-30.37,71.93-30.37,71.93,13.6,71.93,30.37Z"/><path class="cls-41" d="M70.72,278.18c-1.36-2.45-3.07-4.86-3.9-7.36-.85-2.53-1.15-5.09-.79-7.64,.61-4.31,2.85-8.7,6.81-12.68,3.62-3.65,9.15-6.95,16.52-9.42,8.17-2.74,17.94-4.87,28.08-5.94,4.62-.49,9.3-.75,14-.82-6.65-.86-13.7-1.32-21.01-1.32-39.73,0-71.93,13.6-71.93,30.37,0,12.23,17.11,22.76,41.77,27.58-5.04-3.95-7.14-8.42-9.54-12.76Z"/><g><path class="cls-11" d="M168.91,263.36c0,13.64-26.19,24.7-58.49,24.7s-58.49-11.06-58.49-24.7,26.19-24.7,58.49-24.7,58.49,11.06,58.49,24.7Z"/><path class="cls-4" d="M161.83,263.36c0,11.99-23.02,21.71-51.4,21.71s-51.4-9.72-51.4-21.71,23.01-21.7,51.4-21.7,51.4,9.72,51.4,21.7Z"/><path class="cls-41" d="M110.43,241.65c-12.28,0-23.56,1.82-32.4,4.86,2.26-.14,4.58-.22,6.94-.22,25.36,0,45.92,8.68,45.92,19.39,0,8.9-14.2,16.4-33.55,18.68,4.18,.46,8.57,.71,13.1,.71,28.39,0,51.4-9.72,51.4-21.71s-23.02-21.7-51.4-21.7Z"/></g><g><path class="cls-11" d="M132.78,263.92c-.94-1-2.36-1.89-4.2-2.62-2.21-.89-5.55-1.75-9.92-2.58-1.3-.25-2.24-.45-2.81-.58l-1.92-.42v-7.79c1.74,0,3.15,.12,4.18,.34,.7,.15,1.07,.3,1.12,.45-.07,.07-.33,.28-1.26,.75-1.28,.65-1.93,1.34-1.93,2.07,0,.93,.82,1.69,2.45,2.27,1.55,.55,3.6,.82,6.09,.82s4.33-.34,5.83-1.02c1.48-.67,2.23-1.52,2.23-2.55,0-1.82-1.86-3.29-5.54-4.38-3.24-.96-7.65-1.53-13.14-1.7l-.05-3.06h-7.94v3.12c-5.5,.42-9.89,1.29-13.04,2.6-3.44,1.43-5.19,3.27-5.19,5.46,0,1.83,1.29,3.45,3.84,4.81,2.49,1.33,6.39,2.5,11.56,3.47l2.82,.56v9.19c-1.91-.05-3.53-.19-4.82-.42-.89-.16-1.49-.34-1.72-.5,.04,0,.09-.02,.14-.03,.86-.16,1.51-.33,1.99-.52l.05-.02c.64-.27,1.12-.59,1.42-.95,.28-.34,.42-.72,.42-1.13,0-1.02-.74-1.85-2.21-2.47-1.47-.62-3.43-.93-5.84-.93-2.55,0-4.67,.36-6.3,1.08-1.62,.71-2.44,1.63-2.44,2.74,0,1.77,1.9,3.25,5.65,4.4,3.32,1.01,7.91,1.69,13.66,2.01v6.44h7.95v-6.46c6.19-.45,11.09-1.42,14.57-2.9,3.76-1.6,5.67-3.68,5.67-6.2,0-1.22-.47-2.34-1.4-3.33Zm-10.58,5.33c0,1-.78,1.79-2.4,2.42-1.4,.55-3.4,.97-5.96,1.25v-7.6c2.53,.49,4.51,1.05,5.91,1.66,1.65,.71,2.45,1.46,2.45,2.27Zm-16.02-18.94v6.02c-1.82-.44-3.28-.91-4.34-1.4-1.32-.61-1.96-1.2-1.96-1.82,0-.73,.61-1.33,1.88-1.82,1.05-.41,2.54-.74,4.42-.98Z"/><path class="cls-17" d="M107.4,282.21v-6.37c-6.13-.28-10.88-.93-14.25-1.96-3.37-1.03-5.06-2.34-5.06-3.91,0-.95,.68-1.73,2.04-2.32,1.36-.6,3.12-.89,5.28-.89,2.03,0,3.65,.25,4.84,.76,1.2,.51,1.79,1.19,1.79,2.04,0,.35-.12,.66-.34,.93-.23,.28-.59,.52-1.08,.73-.36,.14-.9,.28-1.62,.42-.72,.14-1.08,.28-1.08,.44,0,.47,.89,.87,2.68,1.19,1.78,.32,4.05,.49,6.8,.49v-10.19l-3.64-.73c-5.01-.94-8.7-2.04-11.05-3.3-2.36-1.26-3.54-2.74-3.54-4.44,0-2.03,1.59-3.71,4.76-5.03,3.18-1.32,7.66-2.16,13.46-2.52v-3.03h5.11l.05,3.03c5.86,.11,10.44,.65,13.73,1.63,3.29,.98,4.94,2.27,4.94,3.89,0,.87-.62,1.58-1.84,2.14-1.23,.55-2.82,.83-4.79,.83-2.16,0-3.89-.23-5.18-.69-1.29-.46-1.94-1.06-1.94-1.8,0-.58,.53-1.14,1.6-1.68,1.06-.54,1.6-.91,1.6-1.1,0-.42-.64-.76-1.92-1.03-1.28-.27-2.95-.4-5.01-.4h-1.23v8.75l2.65,.58c.59,.14,1.56,.34,2.9,.6,4.26,.8,7.43,1.63,9.53,2.47,1.7,.68,2.99,1.48,3.86,2.41,.87,.93,1.3,1.96,1.3,3.11,0,2.37-1.75,4.29-5.26,5.78-3.5,1.49-8.5,2.42-14.98,2.81v6.37h-5.11Zm.2-24.9v-7.78c-2.98,.26-5.25,.7-6.8,1.31-1.56,.61-2.33,1.36-2.33,2.26,0,.76,.78,1.5,2.33,2.22,1.55,.72,3.82,1.38,6.8,1.99Zm4.82,16.35c3.67-.29,6.45-.81,8.35-1.56,1.9-.75,2.85-1.7,2.85-2.86,0-.97-.95-1.86-2.85-2.69-1.9-.82-4.69-1.54-8.35-2.15v9.25Z"/><path class="cls-20" d="M112.56,247.41l-.05-2.9h-5.11v2.88c1.65-.02,3.41-.04,5.16,.01Z"/><path class="cls-20" d="M119.51,248.22c4.28,1.1,3.93,3.18,4.11,5.03,.08,.79,.28,1.65,1.23,2.35,.21,.15,.44,.29,.7,.4,1.54-.08,2.83-.34,3.85-.8,1.23-.55,1.84-1.26,1.84-2.14,0-1.62-1.65-2.92-4.94-3.89-2.48-.73-5.69-1.22-9.62-1.47,1,.12,1.95,.29,2.83,.52Z"/><path class="cls-20" d="M125.48,264.64c-3.35-1.76-8.04-2.61-13.07-3.2-4.52-.54-9.51-.9-13.51-1.99-3.95-1.08-6.43-2.85-7.42-4.77-.63-1.22-.64-2.47,.41-3.57-1.8,1.13-2.71,2.46-2.71,3.99,0,1.7,1.18,3.18,3.54,4.44,2.36,1.26,6.04,2.36,11.05,3.3l3.64,.73v10.19c-2.75,0-5.02-.16-6.8-.49-1.79-.33-2.68-.72-2.68-1.19,0-.15,.36-.3,1.08-.44,.72-.14,1.26-.28,1.62-.42,.49-.21,.85-.45,1.08-.73,.23-.28,.34-.59,.34-.93,0-.86-.6-1.54-1.79-2.04-1.19-.5-2.81-.76-4.84-.76-2.16,0-3.92,.3-5.28,.89-1.36,.59-2.04,1.37-2.04,2.32,0,1.58,1.69,2.88,5.06,3.91,3.07,.94,7.29,1.56,12.64,1.88,.54,0,1.07-.02,1.61-.03v6.49h5.11v-6.64c.39-.02,.78-.03,1.17-.05,2.6-.13,5.21-.34,7.58-.83,4.22-.87,8.29-2.32,8.54-4.43,.23-1.94-1.45-4.1-4.33-5.62Zm-4.71,7.46c-1.9,.75-4.69,1.27-8.35,1.56v-9.25c3.67,.61,6.45,1.32,8.35,2.15,1.9,.82,2.85,1.72,2.85,2.69,0,1.16-.95,2.12-2.85,2.86Z"/></g></g></g><g><path class="cls-22" d="M182.36,252.8c0,16.77-32.21,30.37-71.93,30.37s-71.93-13.6-71.93-30.37v-11.52H181.93l.42,11.52Z"/><g><path class="cls-4" d="M182.36,241.27c0,16.78-32.21,30.37-71.93,30.37s-71.93-13.6-71.93-30.37,32.2-30.37,71.93-30.37,71.93,13.6,71.93,30.37Z"/><path class="cls-41" d="M70.72,256.09c-1.36-2.45-3.07-4.86-3.9-7.36-.85-2.53-1.15-5.09-.79-7.64,.61-4.31,2.85-8.7,6.81-12.68,3.62-3.65,9.15-6.95,16.52-9.42,8.17-2.74,17.94-4.87,28.08-5.94,4.62-.49,9.3-.75,14-.82-6.65-.86-13.7-1.32-21.01-1.32-39.73,0-71.93,13.6-71.93,30.37,0,12.23,17.11,22.76,41.77,27.58-5.04-3.95-7.14-8.42-9.54-12.76Z"/><g><path class="cls-11" d="M168.91,241.27c0,13.64-26.19,24.7-58.49,24.7s-58.49-11.06-58.49-24.7,26.19-24.7,58.49-24.7,58.49,11.06,58.49,24.7Z"/><path class="cls-4" d="M161.83,241.27c0,11.99-23.02,21.71-51.4,21.71s-51.4-9.72-51.4-21.71,23.01-21.71,51.4-21.71,51.4,9.72,51.4,21.71Z"/><path class="cls-41" d="M110.43,219.57c-12.28,0-23.56,1.82-32.4,4.86,2.26-.15,4.58-.22,6.94-.22,25.36,0,45.92,8.68,45.92,19.39,0,8.9-14.2,16.4-33.55,18.68,4.18,.46,8.57,.71,13.1,.71,28.39,0,51.4-9.72,51.4-21.71s-23.02-21.71-51.4-21.71Z"/></g><g><path class="cls-11" d="M132.78,241.83c-.94-1-2.36-1.89-4.2-2.62-2.21-.89-5.55-1.75-9.92-2.58-1.3-.25-2.24-.45-2.81-.58l-1.92-.42v-7.79c1.74,0,3.15,.12,4.18,.34,.7,.15,1.07,.3,1.12,.45-.07,.07-.33,.28-1.26,.75-1.28,.65-1.93,1.34-1.93,2.07,0,.93,.82,1.69,2.45,2.27,1.55,.55,3.6,.82,6.09,.82s4.33-.34,5.83-1.02c1.48-.67,2.23-1.52,2.23-2.55,0-1.82-1.86-3.29-5.54-4.38-3.24-.96-7.65-1.53-13.14-1.7l-.05-3.06h-7.94v3.12c-5.5,.42-9.89,1.29-13.04,2.6-3.44,1.43-5.19,3.27-5.19,5.46,0,1.83,1.29,3.45,3.84,4.81,2.49,1.33,6.39,2.5,11.56,3.47l2.82,.56v9.19c-1.91-.05-3.53-.19-4.82-.42-.89-.16-1.49-.34-1.72-.5,.04,0,.09-.02,.14-.03,.86-.17,1.51-.33,1.99-.52l.05-.02c.64-.27,1.12-.59,1.42-.95,.28-.34,.42-.72,.42-1.13,0-1.02-.74-1.85-2.21-2.47-1.47-.62-3.43-.93-5.84-.93-2.55,0-4.67,.36-6.3,1.08-1.62,.71-2.44,1.63-2.44,2.74,0,1.77,1.9,3.25,5.65,4.4,3.32,1.01,7.91,1.69,13.66,2.01v6.44h7.95v-6.46c6.19-.45,11.09-1.42,14.57-2.9,3.76-1.6,5.67-3.68,5.67-6.2,0-1.22-.47-2.34-1.4-3.33Zm-10.58,5.33c0,1-.78,1.79-2.4,2.42-1.4,.55-3.4,.97-5.96,1.25v-7.6c2.53,.49,4.51,1.05,5.91,1.66,1.65,.71,2.45,1.46,2.45,2.27Zm-16.02-18.94v6.02c-1.82-.44-3.28-.91-4.34-1.4-1.32-.61-1.96-1.2-1.96-1.82,0-.73,.61-1.33,1.88-1.82,1.05-.41,2.54-.74,4.42-.98Z"/><path class="cls-17" d="M107.4,260.12v-6.37c-6.13-.28-10.88-.93-14.25-1.96-3.37-1.03-5.06-2.34-5.06-3.91,0-.95,.68-1.73,2.04-2.32,1.36-.6,3.12-.89,5.28-.89,2.03,0,3.65,.25,4.84,.76,1.2,.51,1.79,1.19,1.79,2.04,0,.35-.12,.66-.34,.93-.23,.28-.59,.52-1.08,.73-.36,.14-.9,.28-1.62,.42-.72,.14-1.08,.28-1.08,.44,0,.47,.89,.87,2.68,1.19,1.78,.32,4.05,.49,6.8,.49v-10.19l-3.64-.73c-5.01-.94-8.7-2.04-11.05-3.3-2.36-1.26-3.54-2.74-3.54-4.44,0-2.03,1.59-3.71,4.76-5.03,3.18-1.32,7.66-2.16,13.46-2.52v-3.03h5.11l.05,3.03c5.86,.11,10.44,.65,13.73,1.63,3.29,.98,4.94,2.27,4.94,3.89,0,.87-.62,1.58-1.84,2.14-1.23,.55-2.82,.83-4.79,.83-2.16,0-3.89-.23-5.18-.69-1.29-.45-1.94-1.06-1.94-1.8,0-.58,.53-1.14,1.6-1.68,1.06-.54,1.6-.91,1.6-1.1,0-.42-.64-.76-1.92-1.03-1.28-.27-2.95-.4-5.01-.4h-1.23v8.75l2.65,.58c.59,.14,1.56,.34,2.9,.6,4.26,.8,7.43,1.63,9.53,2.47,1.7,.68,2.99,1.48,3.86,2.41,.87,.93,1.3,1.96,1.3,3.11,0,2.37-1.75,4.29-5.26,5.78-3.5,1.49-8.5,2.42-14.98,2.81v6.37h-5.11Zm.2-24.9v-7.78c-2.98,.26-5.25,.7-6.8,1.31-1.56,.61-2.33,1.36-2.33,2.26,0,.76,.78,1.5,2.33,2.22,1.55,.72,3.82,1.38,6.8,1.99Zm4.82,16.35c3.67-.29,6.45-.81,8.35-1.56,1.9-.75,2.85-1.7,2.85-2.86,0-.97-.95-1.86-2.85-2.69-1.9-.82-4.69-1.54-8.35-2.15v9.25Z"/><path class="cls-20" d="M112.56,225.32l-.05-2.9h-5.11v2.88c1.65-.02,3.41-.04,5.16,.01Z"/><path class="cls-20" d="M119.51,226.13c4.28,1.1,3.93,3.18,4.11,5.03,.08,.79,.28,1.65,1.23,2.35,.21,.15,.44,.29,.7,.4,1.54-.08,2.83-.34,3.85-.8,1.23-.55,1.84-1.26,1.84-2.14,0-1.62-1.65-2.91-4.94-3.89-2.48-.73-5.69-1.22-9.62-1.47,1,.13,1.95,.29,2.83,.52Z"/><path class="cls-20" d="M125.48,242.55c-3.35-1.76-8.04-2.61-13.07-3.2-4.52-.54-9.51-.9-13.51-1.99-3.95-1.08-6.43-2.85-7.42-4.77-.63-1.22-.64-2.47,.41-3.57-1.8,1.13-2.71,2.46-2.71,3.99,0,1.7,1.18,3.18,3.54,4.44,2.36,1.26,6.04,2.36,11.05,3.3l3.64,.73v10.19c-2.75,0-5.02-.16-6.8-.49-1.79-.33-2.68-.72-2.68-1.19,0-.15,.36-.3,1.08-.44,.72-.14,1.26-.28,1.62-.42,.49-.21,.85-.45,1.08-.73,.23-.28,.34-.59,.34-.93,0-.86-.6-1.54-1.79-2.04-1.19-.5-2.81-.76-4.84-.76-2.16,0-3.92,.3-5.28,.89-1.36,.59-2.04,1.37-2.04,2.32,0,1.58,1.69,2.88,5.06,3.91,3.07,.94,7.29,1.56,12.64,1.88,.54,0,1.07-.02,1.61-.03v6.49h5.11v-6.64c.39-.02,.78-.03,1.17-.05,2.6-.13,5.21-.34,7.58-.83,4.22-.87,8.29-2.32,8.54-4.43,.23-1.94-1.45-4.1-4.33-5.62Zm-4.71,7.46c-1.9,.75-4.69,1.27-8.35,1.56v-9.25c3.67,.61,6.45,1.32,8.35,2.15,1.9,.82,2.85,1.72,2.85,2.69,0,1.16-.95,2.12-2.85,2.86Z"/></g></g></g></g><g><path class="cls-36" d="M354.48,357.13c0,5.3-23.63,9.6-52.78,9.6s-52.78-4.3-52.78-9.6,23.63-9.6,52.78-9.6,52.78,4.3,52.78,9.6Z"/><g><path class="cls-28" d="M326.31,160.31l15.11-2.12-.77,32.95c.06,3.44-2.68,6.28-6.12,6.34-3.44,.06-6.28-2.68-6.34-6.12l-1.88-31.06Z"/><path class="cls-28" d="M264.17,197.74c3.42,.42,6.52-2.01,6.94-5.43l5.37-32.68c.42-3.42-3.38-6.7-6.79-7.12h0c-3.41-.42-7.94,2.26-8.36,5.67l-2.59,32.61c-.42,3.42,2.01,6.52,5.43,6.94h0Z"/><path class="cls-28" d="M225.87,201.84c.75,3.36,.34,4.65,3.7,3.89l36.04-6.43c3.36-.76,5.47-4.09,4.71-7.45h0c-.76-3.36-4.09-5.47-7.45-4.71l-34.74,11c-3.36,.75-3.02,.35-2.26,3.71h0Z"/><g><polygon class="cls-3" points="324.66 204.22 278.23 204.22 273.34 348.43 289.25 348.43 301.71 247.01 311.2 348.43 326.83 348.43 324.66 204.22"/><rect class="cls-28" x="292.73" y="122.15" width="18.47" height="11.16"/><path class="cls-13" d="M297.26,130.2c-1.57-.65-3.07-1.49-4.53-2.42v-5.63h18.47v6.8c-4.41,1.91-9.34,3.16-13.94,1.26Z"/><path class="cls-28" d="M279.26,104.16c.59,3.03,2.47,5.21,4.21,4.87,1.74-.34,2.68-3.06,2.09-6.09-.59-3.03-2.47-5.21-4.21-4.87-1.74,.34-2.68,3.06-2.09,6.09Z"/><path class="cls-28" d="M324.5,104.88c-.58,3.03-2.46,5.21-4.2,4.88-1.74-.33-2.68-3.06-2.11-6.08,.58-3.03,2.46-5.21,4.2-4.88,1.74,.33,2.68,3.06,2.11,6.08Z"/><path class="cls-28" d="M282.73,107.78c.26,3.77,2.35,7.31,4.27,10.11,5.04,7.35,7.06,10.52,14.45,10.52s8.2-1.88,13.73-7.79c2.78-2.96,4.29-6.87,5.37-10.36l.41-3.86c.38-3.38,.38-8.19,.38-8.19-.12-6.98-.73-14.11-3.86-18.41-3.73-5.12-9.89-6.42-15.73-6.42-5.31,0-11.29,1.33-14.92,5.81-3.52,4.36-4.13,10.93-4.23,17.98,0,.27,0,.54,0,.81,0,0,0,8.36,.13,9.8Z"/><path class="cls-28" d="M258.54,163.91l3.69-18.15c4.3-6,14.84-9.25,14.84-9.25l16.04-5.37h17.7l15.49,5.87s10.05,3.43,14.09,10.52l5,16.38h-18.25l-1.71-3-.77,3h-45.73l-.71-3.41-1.28,3.41h-18.41Z"/><path class="cls-16" d="M315.02,84.41s-7.47,5.3-27.22,4.1c0,0-4.82,11.19-3.62,15.77h-1.55l-1.66-5.52s-2.33-4.79-1.89-14.35c0,0,1.47-8.43,6.65-12.53,0,0-1.46-1.09-3.33,1.5,0,0,1.53-5.68,11.81-6.48,0,0-2.89-.16-5.3,0,0,0,6.58-3.37,12.37-.96,0,0-1.4-2.09-4.24-2.09,0,0,7.13-.16,11.14,3.69,0,0-1.93-2.57-4.02-3.86,0,0,9.32,1.77,10.84,6.58,0,0-.4-3.37-1.53-4.82,0,0,5.05,3.32,4.52,8.83,0,0,2.71,5.46-2.99,10.12Z"/><path class="cls-16" d="M319.6,104.27h1.55l2.43-6.86s4.23-8.79,1.09-17.95c0,0-1.69-6.99-8.56-7.11,0,0,2.55,12.41,3.97,22.4l-.48,9.51Z"/><polygon class="cls-28" points="325.43 160.92 278.23 160.51 278.23 204.22 324.66 204.22 325.43 160.92"/><path class="cls-10" d="M316.87,254.78c2.07-16.96,7.06-33.44,7.74-50.56h.05l2.16,144.21h-15.62l-4.74-50.68c3.44-14.05,8.65-28.59,10.41-42.97Z"/><path class="cls-10" d="M301.97,239.14c.25-.32-.51,8.18-.26,7.87l-6.69,54.46c-.38,1.36-.19,3.35-.58,4.71-.47,1.62-4.61,34.55-4.25,35.84l-.94,6.41h-15.9l2.2-64.81c11.26-15.47,19.23-27.28,26.43-44.48Z"/><path class="cls-6" d="M262.24,145.76c1.98-5.32,14.25-9.05,14.25-9.05l16.63-5.56,8.85,13.97,8.85-13.97,17.12,6.49s10.95,3.43,13.52,12.58l3.93,13.7-19.09-.1-.87-2.89-.49,51h-47.05l.34-51.42-1.28,3.41h-18.41l3.69-18.15Z"/><path class="cls-24" d="M277.08,136.52l9.57-3.2,15.32,25.94,15.42-25.61,8.92,3.38c-7.45,11.25-.87,23.9-.87,23.9l1.39,59h-51.32l2.72-59.41s4.6-11.3-1.16-23.99Z"/><polygon class="cls-34" points="325.84 175.95 277.47 175.95 277.08 182.36 325.99 182.36 325.84 175.95"/><polygon class="cls-34" points="326.16 187.16 276.82 187.16 276.48 193.58 326.31 193.58 326.16 187.16"/><path class="cls-34" d="M308.98,219.92h7.66c-.47-58.12,6.73-81.79,6.73-84.02l-4.36-1.65c-.29,.81-10.51,26.87-10.03,85.67Z"/><path class="cls-34" d="M295.61,219.92h-7.18c.47-58.12-7.13-84.6-7.2-84.79l4.1-1.46c.29,.81,10.76,27.46,10.28,86.26Z"/><g><rect class="cls-6" x="274.03" y="353.71" width="8.1" height="1.62"/><path class="cls-23" d="M266.8,354.94l7.86-6.71h13.28l-.24,3.45-5.56,3.64v-1.62s-4.44,4.42-6.23,5.5c0,0-5.03,2.59-7.33,1.87,0,0-7.93-1.63-1.77-6.13Z"/></g><g><rect class="cls-6" x="317.44" y="353.71" width="8.1" height="1.62"/><path class="cls-23" d="M332.77,354.94l-7.86-6.71h-13.28l.24,3.45,5.56,3.64v-1.62s4.43,4.42,6.23,5.5c0,0,5.03,2.59,7.33,1.87,0,0,7.93-1.63,1.78-6.13Z"/></g><g><path class="cls-21" d="M280.3,79.11c10.7-2.6,22.59-1.42,22.59-1.42,0,0,11.88-1.18,22.59,1.42,0,0,5.79,.76,3.32,4.1,0,0-2.54,5.04-8.81,6.75,0,0-4.62,1.66-17.1,1.66-12.49,.07-17.1-1.86-17.1-1.86-6.73-1.71-8.63-6.1-8.63-6.1-2.02-3.65,3.14-4.55,3.14-4.55Z"/><path class="cls-38" d="M280.3,77.84c10.7-2.6,22.59-1.41,22.59-1.41,0,0,11.88-1.18,22.59,1.41,0,0,5.79,.76,3.32,4.11,0,0-2.54,5.04-8.81,6.75,0,0-4.62,1.66-17.1,1.65-12.49,.07-17.1-1.86-17.1-1.86-6.73-1.71-8.63-6.1-8.63-6.1-2.02-3.64,3.14-4.55,3.14-4.55Z"/><path class="cls-18" d="M284.86,86.35s4.42,1.85,16.39,1.78c11.96,0,16.39-1.59,16.39-1.59,6.01-1.64,8.45-6.47,8.45-6.47,.56-.75,.68-1.37,.53-1.88,1.1,.58,1.92,1.57,.73,3.18,0,0-2.44,4.83-8.45,6.47,0,0-4.43,1.59-16.39,1.59-11.98,.07-16.39-1.78-16.39-1.78-3.99-1.01-6.2-3.01-7.32-4.38,1.29,1.14,3.23,2.36,6.07,3.08Z"/><path class="cls-27" d="M279.59,80.96s0-.06,0-.09c0-.04,0-.08,.01-.12,.35-15.04,10.54-27.1,23.07-27.1s22.99,12.38,23.08,27.7h-.15c-1.26,2.18-11.05,3.87-22.94,3.87s-21.68-1.69-22.93-3.87h-.14c0-.13,0-.26,0-.38Z"/><path class="cls-2" d="M282.02,80.14s0-.06,0-.09c.23-9.7,5.95-17.74,13.53-19.74-6.49,2.83-11.16,10.23-11.37,18.98,0,.03,0,.06,0,.09,0,.02,0,.05,0,.07,0,.09,0,.19,0,.28h.1c.94,1.62,8.24,2.89,17.11,2.89,5.72,0,10.79-.52,13.92-1.33-2.47,1.22-8.74,2.09-16.09,2.09-8.87,0-16.17-1.26-17.1-2.88h-.11c0-.1,0-.19,0-.29,0-.02,0-.05,0-.07Z"/><path class="cls-40" d="M296.26,58.14c-2.9,0-5.67,.65-8.23,1.82,3.98-3.95,9.08-6.33,14.63-6.33,12.69,0,22.99,12.38,23.08,27.7h-.15c-.57,.98-2.87,1.87-6.33,2.54-.91-14.4-10.86-25.74-23.01-25.74Z"/><path class="cls-21" d="M302.67,50.36v-.02c.07,0,.14,0,.22,.01,.07,0,.14,0,.21-.01v.02c10.99,.64,9.78,6.16,9.78,6.16-2.1,7.21-2.09,28.42-2.09,28.42-3.8,.39-7.05,.71-7.9,.64-.86,.07-4.1-.09-7.91-.48,0,0,.01-21.38-2.09-28.58,0,0-1.21-5.52,9.78-6.16Z"/><path class="cls-27" d="M302.69,50.36v-.02c.07,0,.13,0,.2,.01,.06,0,.13,0,.2-.01v.02c9.98,.64,8.88,6.16,8.88,6.16-1.91,7.21-1.9,28.42-1.9,28.42-3.46,.39-6.41,.7-7.18,.64-.78,.07-3.72-.09-7.18-.48,0,0,.01-21.38-1.9-28.58,0,0-1.1-5.52,8.88-6.16Z"/><path class="cls-40" d="M307.23,59.99s1.1-5.52-8.88-6.16v-.02c-.07,0-.13,0-.2,.01-.07,0-.13,0-.2-.01v.02c-1.53,.1-2.8,.31-3.86,.6,.68-1.64,2.72-3.7,8.59-4.07v-.02c.07,0,.13,0,.2,.01,.06,0,.13,0,.2-.01v.02c9.98,.64,8.88,6.16,8.88,6.16-1.91,7.21-1.9,28.42-1.9,28.42-1.78,.2-3.42,.38-4.71,.5,.08-6.09,.41-19.91,1.88-25.45Z"/><g class="cls-7"><path class="cls-1" d="M298.72,85.14c.6-10.95-1.62-24.61-1.64-24.74v-.02c-.61-3.05,.05-3.91,.18-4.04l.08-.02-.02-.02c1.5-1.33,4.59-1.18,5.56-.69h0c-.43-.22-4.16-1.96-6.33-.44-.39,.24-1.63,1.34-.82,5.47,.07,.44,2.21,13.76,1.63,24.43l1.36,.08Z"/></g></g></g><path class="cls-28" d="M226.24,198.22h0c-.95-1.1-1.81-1.99-1.81-1.99-.45-1.37-1.6-3.93-1.6-3.93-.66-1.66-1.02-1.82-1.02-1.82,0,0-1.45-.62-1.58,.81-.05,.57,.02,1.17,.16,1.73,.22,.89,.87,1.62,1.03,2.51,.28,1.51-1.33,2.15-2.46,2.45l-6.11,.15-4.88,.49c-1.2-.04-1.77,.44-1.79,1.04-.02,.6,.52,1.11,1.73,1.14l3.57-.09,3.75,.4-7.81,.08c-.63,0-1.67,.23-1.68,.96v.18c-.01,.74,.95,1.16,1.58,1.16l6.02,.29-5.2,.04c-.54,.02-1.23,.35-1.2,.98,.11,.92,1.34,1.13,1.34,1.13l6.93,.21,.06,.05-4.96,.34c-.52,.05-1.59,.43-1.53,1.18,0,0,.17,.95,1.55,.89l7.25-.15c1.95,.13,4.97-.09,8.98-1.67l4.42-1.52-1.81-7.16-2.93,.13Z"/><path class="cls-28" d="M329.56,232.44h0c-1.31,.64-2.39,1.24-2.39,1.24-1.44,.09-4.21,.54-4.21,.54-1.78,.22-2.02,.52-2.02,.52,0,0-.97,1.24,.38,1.73,.54,.19,1.14,.28,1.71,.29,.92,.02,1.79-.42,2.69-.35,1.53,.12,1.74,1.84,1.74,3.01l-1.42,5.94-.78,4.84c-.34,1.15-.03,1.83,.54,2,.58,.17,1.21-.22,1.55-1.38l.83-3.48,1.35-3.52-1.92,7.58c-.17,.61-.21,1.68,.5,1.87l.18,.05c.71,.19,1.36-.63,1.53-1.23l1.82-5.74-1.3,5.04c-.12,.52,.03,1.28,.63,1.41,.92,.13,1.44-1.01,1.44-1.01l1.97-6.65,.06-.05-.94,4.88c-.09,.52,0,1.65,.75,1.78,0,0,.97,.08,1.26-1.28l1.71-7.05c.62-1.86,1.19-4.83,.68-9.11l-.34-4.66-7.38-.09-.62,2.86Z"/><path class="cls-28" d="M333.25,233.06c3.44,.13,4.58,.86,4.71-2.58l3.01-36.48c.13-3.44-2.55-6.33-5.99-6.46h0c-3.44-.13-6.33,2.55-6.46,5.99l1.73,36.4c-.13,3.44-.44,3.01,3,3.14h0Z"/><polygon class="cls-10" points="319.29 241.31 325.39 252.81 319.05 272.15 315.81 261.55 319.29 241.31"/><path class="cls-3" d="M319.29,241.31s-1.48-5.32-1.58-7.59l-9.46,11.4,7.78,15.12s3.4-17.38,3.26-18.93Z"/></g></g></g></g></svg>